<svg width="40" height="36" viewBox="0 0 40 36" fill="none" xmlns="http://www.w3.org/2000/svg">
<path d="M30.3068 10.1675C30.2947 12.9675 29.13 15.4945 27.2373 17.3215C25.3568 19.1486 22.7605 20.2757 19.8973 20.2638C17.5801 20.252 15.4326 19.5045 13.7099 18.2351C14.5834 18.3774 15.4933 18.2944 16.3304 17.9978C17.4223 18.4724 18.6234 18.7452 19.8973 18.7452C22.3359 18.7571 24.544 17.7961 26.1454 16.2419C27.7469 14.6877 28.7417 12.5404 28.7539 10.1557C28.7539 9.50317 28.6811 8.87437 28.5476 8.26931C28.2443 8.81505 27.8076 9.30148 27.2737 9.68112C25.4539 10.9268 23.4399 11.0574 21.4017 10.9743C21.4381 10.8438 21.4745 10.7133 21.523 10.5709C21.6322 10.215 21.7293 9.84722 21.8506 9.47944C23.4885 9.51503 25.0657 9.34893 26.3881 8.44727C27.4072 7.74729 27.9167 6.24056 27.1645 5.19653C26.4123 4.14063 24.7988 4.09318 23.7675 4.79315C21.9477 6.03887 21.3047 8.19812 20.6738 10.3455C19.9701 12.7658 19.2543 15.1742 16.9856 16.7283C16.1121 17.3334 15.0201 17.5588 14.001 17.4283C10.8103 17.0131 9.5485 12.7658 9.56063 10.0964C9.57277 7.29646 10.7375 4.76942 12.6301 2.94237C14.5227 1.11531 17.119 -0.0117713 19.9822 9.27497e-05C22.2995 0.0119568 24.4348 0.75939 26.1576 2.02884C25.284 1.88647 24.3741 1.96952 23.537 2.26612C22.4451 1.79156 21.244 1.51869 19.9701 1.51869C17.5315 1.50682 15.3235 2.46781 13.722 4.02199C12.1327 5.56431 11.1257 7.72356 11.1257 10.0964C11.1257 10.7489 11.1985 11.3777 11.3319 11.9946C11.6352 11.4489 12.072 10.9506 12.6058 10.5828C14.4257 9.33707 16.4396 9.20656 18.4778 9.28961C18.4414 9.42012 18.3929 9.55062 18.3565 9.69299C18.2473 10.0489 18.1503 10.4167 18.029 10.7845C16.3911 10.7489 14.8139 10.915 13.4915 11.8166C12.4724 12.5166 11.9628 14.0234 12.715 15.0674C13.4672 16.1114 15.0929 16.1707 16.1121 15.4708C17.9319 14.225 18.5628 12.0658 19.2058 9.91841C19.9095 7.49815 20.6253 5.08975 22.894 3.53557C23.7796 2.9305 24.8594 2.69322 25.8785 2.83559C29.0572 3.2627 30.3189 7.51001 30.3068 10.1675Z" fill="#8B9BA7"/>
<path d="M1.38307 25.1755H3.83377C3.94296 25.1755 4.02789 25.1992 4.08855 25.2348C4.14921 25.2823 4.17348 25.3534 4.17348 25.4484C4.17348 25.5433 4.13708 25.6145 4.07642 25.6619C4.01576 25.7094 3.93083 25.7331 3.82164 25.7331H1.38307V25.1755ZM0 24.8789C0 25.8162 0 26.7416 0 27.6789C0 28.106 0.181983 28.3196 0.7158 28.3196H4.19774C4.69516 28.3196 5.04699 28.2365 5.26537 28.0586C5.48375 27.8806 5.58081 27.584 5.58081 27.1687C5.58081 26.6823 5.37456 26.3619 4.96207 26.184C5.09552 26.1246 5.20471 26.0297 5.28964 25.8874C5.37456 25.745 5.42309 25.5551 5.42309 25.3416C5.42309 24.8551 5.27751 24.5229 4.98633 24.345C4.79222 24.2263 4.47678 24.167 4.04002 24.167C2.92386 24.167 1.84409 24.167 0.740064 24.167C0.254776 24.1789 0.0242644 24.3687 0 24.8789ZM1.38307 26.6704H3.78525C3.9187 26.6704 4.01576 26.6941 4.08855 26.7416C4.16134 26.7891 4.19774 26.884 4.19774 27.0145C4.19774 27.228 4.06429 27.323 3.79738 27.323H1.38307V26.6704Z" fill="#8B9BA7"/>
<path d="M11.1493 26.2198C11.1493 25.9825 11.1493 25.6978 11.0159 25.4961C10.7975 25.1877 10.3486 25.1758 9.59641 25.1639C8.85635 25.1758 8.40746 25.1877 8.18908 25.4961C8.04349 25.6978 8.04349 26.0063 8.05562 26.2435C8.05562 26.4808 8.05562 26.7655 8.18908 26.9672C8.40746 27.2638 8.85635 27.2994 9.59641 27.3231C10.3486 27.2994 10.7975 27.2757 11.0159 26.9672C11.1493 26.7655 11.1493 26.469 11.1493 26.2198ZM6.62402 26.2198C6.63616 25.2233 6.85454 24.8199 7.1821 24.4877C7.71592 23.942 8.83208 23.9776 9.57215 23.9776C10.3365 23.9776 11.4648 23.9301 12.0229 24.4877C12.3504 24.8199 12.5688 25.2233 12.5809 26.2435C12.5688 27.2401 12.3504 27.6435 12.0229 27.9757C11.489 28.5095 10.3365 28.5095 9.59641 28.5095C8.85635 28.5095 7.70379 28.5095 7.16997 27.9757C6.8424 27.6553 6.62402 27.2401 6.62402 26.2198Z" fill="#8B9BA7"/>
<path d="M17.1312 28.4618C17.5073 28.4381 17.847 28.3551 18.0897 28.2839C18.5871 28.1178 18.8661 27.8805 19.0481 27.4534C19.1209 27.2755 19.1573 27.0145 19.1452 26.6823H17.75C17.7136 27.3229 16.84 27.2873 16.3184 27.2992C15.7724 27.2992 15.1051 27.2873 15.0323 26.6585C15.0202 26.5399 15.0081 26.3975 15.0081 26.2314C15.0081 26.0654 15.0202 25.923 15.0323 25.8043C15.1051 25.1874 15.7724 25.1637 16.3184 25.1637C16.84 25.1637 17.7136 25.1281 17.75 25.7806H19.1452C19.1573 25.4484 19.1209 25.1874 19.0481 25.0095C18.8661 24.5942 18.5871 24.3451 18.0897 24.179C17.847 24.096 17.5194 24.0129 17.1312 24.0011C15.9665 23.9417 14.0254 23.8231 13.7221 25.2112C13.6614 25.4722 13.625 25.745 13.625 26.2196V26.2433C13.625 26.7179 13.6614 26.9907 13.7221 27.2517C14.0254 28.6398 15.9787 28.5212 17.1312 28.4618Z" fill="#8B9BA7"/>
<path d="M26.5938 24.1787H28.9595L30.015 26.4922C30.2334 26.9548 30.0999 26.8718 30.3183 26.504L31.4102 24.1906H33.6547V28.3311H32.3444V25.0685L31.1069 27.5243C30.7915 28.1768 30.7915 28.3192 30.1363 28.3192C29.6632 28.3073 29.5661 28.1768 29.2628 27.6192L27.904 25.0566V28.3192H26.5938V24.1787Z" fill="#8B9BA7"/>
<path d="M36.5184 26.267L36.5427 27.2518H38.4353C38.7629 27.2518 38.8721 27.0857 38.86 26.7535C38.8478 26.4213 38.7144 26.2552 38.3868 26.2552H36.5184V26.267ZM35.1475 28.3196V24.167H36.5305V25.1873H38.4111C39.5272 25.1873 40.0125 25.5789 39.9883 26.7535C39.9761 27.9281 39.4908 28.3196 38.3383 28.3196H35.1475Z" fill="#8B9BA7"/>
<path d="M20.4062 27.5836C20.4062 26.7057 20.4062 25.8159 20.4062 24.938C20.4062 24.3448 20.7096 24.1787 21.1706 24.1787C22.5294 24.1787 23.7183 24.1787 25.0771 24.1787C25.0771 24.5109 25.0771 24.8431 25.0771 25.1871C23.9246 25.1871 22.9419 25.1871 21.7893 25.1871C21.7893 25.377 21.7893 25.5668 21.7893 25.7566C22.8934 25.7566 23.8275 25.7566 24.9194 25.7566C24.9194 26.0888 24.9194 26.421 24.9194 26.7532C23.8154 26.7532 22.8812 26.7532 21.7893 26.7532C21.7893 26.943 21.7893 27.1328 21.7893 27.3226C22.9419 27.3226 23.9246 27.3226 25.0771 27.3226C25.0771 27.6548 25.0771 27.987 25.0771 28.3311C23.7062 28.3311 22.5051 28.3311 21.1342 28.3311C20.6489 28.3192 20.4062 28.0938 20.4062 27.5836Z" fill="#8B9BA7"/>
<path d="M1.21323 30.9531H4.5375C5.39889 30.9769 5.7386 31.6294 5.75073 32.3413C5.75073 33.2549 5.75073 34.1804 5.75073 35.094H4.36764V32.6973C4.36764 32.1278 4.19779 32.0091 3.68823 32.0091C3.15441 32.0091 2.60845 32.0091 2.07463 32.0091C1.56507 32.0091 1.39522 32.1159 1.39522 32.6973V35.094H0C0 34.1685 0 33.2549 0 32.3413C0.0121323 31.6176 0.351838 30.9769 1.21323 30.9531Z" fill="#8B9BA7"/>
<path d="M16.2577 33.338L17.9684 33.3261C17.0221 31.4989 17.2526 31.3921 16.2577 33.338ZM17.107 30.9531C17.9684 30.9531 18.1504 31.0125 18.6235 31.7599L20.4191 35.094H18.9026L18.4779 34.4058H15.7361L15.3114 35.094H13.7949L15.5905 31.7599C16.0758 31.0006 16.2456 30.9531 17.107 30.9531Z" fill="#8B9BA7"/>
<path d="M21.498 30.9414H22.8811V32.3888H25.4046V30.9414H26.7877V35.0818H25.4046V33.4683H22.8811V35.0818H21.498V30.9414Z" fill="#8B9BA7"/>
<path d="M34.6377 32.021V30.9414H40.0001V32.021H38.0104V35.0938H36.6274V32.021H34.6377Z" fill="#8B9BA7"/>
<path d="M12.7267 30.965V35.0937C12.2535 35.0937 11.7804 35.0937 11.3194 35.0937C11.3194 34.0734 11.3194 33.0649 11.3194 32.0446H9.54806C9.36607 32.0446 9.26902 32.1633 9.24475 32.3175L9.08703 34.2276C9.0385 34.8326 8.51682 35.1411 7.93448 35.1411C7.61904 35.1411 7.32787 35.1174 7.04883 35.0818C7.04883 34.7733 7.04883 34.453 7.04883 34.1327H7.40066C7.57051 34.1327 7.7161 34.0378 7.72823 33.8717L7.93448 31.5701C7.95874 31.1785 8.18925 30.9531 8.66241 30.9531H12.7267" fill="#8B9BA7"/>
<path d="M28.3408 34.358C28.3408 33.4801 28.3408 32.5903 28.3408 31.7124C28.3408 31.1192 28.6441 30.9531 29.1051 30.9531C30.464 30.9531 31.6529 30.9531 33.0117 30.9531C33.0117 31.2853 33.0117 31.6175 33.0117 31.9616C31.8592 31.9616 30.8765 31.9616 29.7239 31.9616C29.7239 32.1514 29.7239 32.3412 29.7239 32.531C30.8279 32.531 31.7621 32.531 32.854 32.531C32.854 32.8632 32.854 33.1954 32.854 33.5276C31.75 33.5276 30.8158 33.5276 29.7239 33.5276C29.7239 33.7174 29.7239 33.9072 29.7239 34.097C30.8765 34.097 31.8592 34.097 33.0117 34.097C33.0117 34.4292 33.0117 34.7614 33.0117 35.1055C31.6408 35.1055 30.4397 35.1055 29.0688 35.1055C28.5713 35.0936 28.3408 34.8563 28.3408 34.358Z" fill="#8B9BA7"/>
</svg>
