<svg width="60" height="48" viewBox="0 0 60 48" fill="none" xmlns="http://www.w3.org/2000/svg">
<path d="M20.0001 22.5001H5.27501C5.73964 19.4059 6.84449 16.4427 8.519 13.7996C10.1935 11.1566 12.4008 8.89182 15 7.15002L19.4751 4.15001L16.725 0L12.25 3.00001C8.48322 5.5102 5.39429 8.91142 3.25734 12.9018C1.12039 16.8923 0.00151772 21.3485 0 25.8751V42.5001C0 43.8262 0.526785 45.098 1.46447 46.0357C2.40215 46.9733 3.67393 47.5001 5.00001 47.5001H20.0001C21.3261 47.5001 22.5979 46.9733 23.5356 46.0357C24.4733 45.098 25.0001 43.8262 25.0001 42.5001V27.5001C25.0001 26.174 24.4733 24.9022 23.5356 23.9645C22.5979 23.0268 21.3261 22.5001 20.0001 22.5001Z" fill="#C9C9C9"/>
<path d="M55.0001 22.5001H40.275C40.7396 19.4059 41.8445 16.4427 43.519 13.7996C45.1935 11.1566 47.4008 8.89182 50 7.15002L54.4751 4.15001L51.75 0L47.25 3.00001C43.4832 5.5102 40.3943 8.91142 38.2573 12.9018C36.1204 16.8923 35.0015 21.3485 35 25.8751V42.5001C35 43.8262 35.5268 45.098 36.4645 46.0357C37.4022 46.9733 38.6739 47.5001 40 47.5001H55.0001C56.3261 47.5001 57.5979 46.9733 58.5356 46.0357C59.4733 45.098 60.0001 43.8262 60.0001 42.5001V27.5001C60.0001 26.174 59.4733 24.9022 58.5356 23.9645C57.5979 23.0268 56.3261 22.5001 55.0001 22.5001Z" fill="#C9C9C9"/>
</svg>
