<svg width="58" height="57" viewBox="0 0 58 57" fill="none" xmlns="http://www.w3.org/2000/svg">
<path d="M25.7838 17C26.6523 17.334 27.5877 17.6013 28.4562 17.9353C28.7902 18.0689 29.1243 18.2694 29.5251 18.3362C30.1932 18.5366 30.5272 19.3383 30.3936 19.9396C30.26 20.7413 30.1264 21.6098 29.926 22.4115C29.8592 23.0128 29.9928 23.4804 30.3936 23.8813C30.9949 24.4826 31.663 25.017 32.2643 25.6183C32.7319 26.086 33.2664 26.2196 33.8677 26.086C34.803 25.8855 35.6715 25.6851 36.6068 25.4847C37.0745 25.3511 37.6757 25.6183 37.8762 26.086C38.4775 27.2885 39.0119 28.5579 39.5464 29.7604C39.7468 30.1613 39.68 30.5621 39.346 30.8962C39.0787 31.1634 38.8115 31.4306 38.4774 31.6311C37.943 32.0319 37.3417 32.4328 36.8072 32.8336C36.4064 33.1677 36.0723 33.5685 36.1392 34.103C36.206 35.0383 36.206 36.0404 36.2728 36.9757C36.2728 37.4434 36.54 37.8443 36.9409 38.0447C37.6089 38.4455 38.2102 38.7796 38.8783 39.1804C39.1455 39.314 39.346 39.5145 39.5464 39.6481C39.8804 39.9821 40.0809 40.383 39.8804 40.8506C39.4796 41.9864 39.0119 43.1889 38.6111 44.3247C38.5443 44.4583 38.4774 44.5919 38.4106 44.7255C38.1434 45.26 37.6757 45.3936 37.0745 45.3268C36.206 45.1932 35.2706 45.0596 34.4021 44.8591C33.8677 44.7923 33.4 44.8592 32.9992 45.26C32.4647 45.8613 31.8634 46.4626 31.2621 46.997C30.7277 47.5315 30.594 48.1996 30.7945 48.9345C30.9949 49.7362 31.1953 50.5379 31.3289 51.3396C31.4626 52.0745 31.3289 52.4753 30.6609 52.7426C29.5251 53.277 28.3226 53.8115 27.1868 54.2791C26.5855 54.5464 26.1179 54.4128 25.717 53.8783C25.1826 53.2102 24.7149 52.5421 24.2472 51.874C23.7796 51.206 23.1783 50.8719 22.3766 50.9387C21.5749 51.0055 20.7732 51.0055 19.9715 51.0723C19.5038 51.0723 19.103 51.3396 18.7689 51.7404C18.4349 52.2081 18.1677 52.7426 17.8336 53.277C17.5664 53.6779 17.366 54.0119 17.0987 54.346C16.7647 54.7468 16.3638 54.8804 15.8962 54.68C14.7604 54.2123 13.6247 53.8115 12.5557 53.4106C12.3553 53.3438 12.2217 53.2102 12.0213 53.0766C11.6204 52.8094 11.4868 52.4085 11.5536 51.9409C11.6872 51.0055 11.8877 50.137 12.0213 49.2017C12.0881 48.6672 12.0213 48.1996 11.5536 47.7987C10.9523 47.1974 10.2843 46.663 9.68298 46.0617C9.21532 45.6609 8.74766 45.5272 8.14638 45.7277C7.34468 45.9281 6.54298 46.1285 5.67447 46.2621C5.47404 46.4626 5.20681 46.4626 5.00638 46.4626C4.60553 46.4626 4.3383 46.2621 4.20468 45.9281C3.6034 44.6587 3.06894 43.3894 2.53447 42.0532C2.33404 41.5855 2.53447 41.1847 2.93532 40.8506C3.40298 40.5166 3.87064 40.1826 4.3383 39.8485C4.73915 39.5813 5.07319 39.314 5.40723 39.0468C5.67447 38.7796 5.87489 38.4455 5.87489 37.9779C5.87489 36.9757 5.80809 35.9068 5.74128 34.9047C5.74128 34.5706 5.54085 34.2366 5.27362 34.103C4.60553 33.6353 3.93745 33.2345 3.20255 32.7668C3.06894 32.7 2.93532 32.5664 2.8017 32.4996C2.46766 32.2323 2.13362 31.9651 2 31.4974C2 31.4306 2 31.3638 2 31.297C2 31.2302 2.06681 31.2302 2.06681 31.1634C2.53447 29.894 2.93532 28.6915 3.33617 27.4221C3.6034 26.6872 4.3383 26.42 5.00638 26.5536C5.80809 26.6872 6.6766 26.8209 7.4783 27.0213C8.01277 27.1549 8.48043 27.0213 8.81447 26.6204C9.48255 25.9523 10.0838 25.2843 10.7519 24.6162C11.086 24.2153 11.1528 23.7477 11.086 23.28C10.8855 22.3447 10.6851 21.4094 10.4847 20.4072C10.3511 19.7391 10.4847 19.4051 11.086 19.0711C12.0881 18.5366 13.157 18.0689 14.226 17.6013C15.3617 17.1336 15.6957 17.2672 16.4306 18.2694C16.9651 19.0043 17.4996 19.6723 18.034 20.4072C18.2345 20.6745 18.5017 20.8081 18.8357 20.8081C19.6374 20.8081 20.506 20.8081 21.3077 20.8081C22.243 20.8081 22.8443 20.474 23.3119 19.6055C23.646 19.0043 24.0468 18.403 24.3809 17.8685C24.6481 17.4677 24.9153 17.1336 25.383 17C25.5834 17 25.6502 17 25.7838 17ZM28.9906 35.9736C29.2579 32.5664 26.1179 27.8898 20.9068 27.8898C16.9651 27.8898 12.9566 31.297 12.9566 35.84C12.8898 40.3162 16.4306 43.9906 20.9736 43.9906C25.9174 44.1243 29.1911 39.8485 28.9906 35.9736Z" stroke="#0779BB" stroke-width="3" stroke-miterlimit="10"/>
<path d="M48.2 1.5L48.4309 1.57698C48.6118 1.63725 48.8116 1.69882 49.0324 1.76676L49.0411 1.76942C49.2522 1.83438 49.4833 1.90548 49.7003 1.97783L49.8014 2.01154L49.8936 2.05764C49.8953 2.05841 49.903 2.06189 49.9187 2.06851C49.9437 2.07903 49.9726 2.09065 50.0169 2.10835L50.0214 2.11015C50.0602 2.12569 50.1128 2.1467 50.1651 2.16872C50.1795 2.17479 50.1951 2.18145 50.2117 2.18866C50.8263 2.38735 51.2096 2.84687 51.4016 3.25486C51.5942 3.66426 51.6654 4.15301 51.5674 4.62253C51.5278 4.86033 51.4863 5.10889 51.4437 5.34711C51.4696 5.37025 51.4968 5.3944 51.5253 5.41974L51.5387 5.43166C51.6079 5.49314 51.686 5.56255 51.7671 5.63678L51.91 5.6572C51.9401 5.6615 51.9949 5.66486 52.1379 5.64287C52.2106 5.63168 52.2851 5.61761 52.3932 5.59721L52.4156 5.59298C52.5045 5.57622 52.6133 5.55583 52.732 5.53711C53.2348 5.42192 53.6875 5.54112 53.9883 5.67998C54.3362 5.84055 54.6557 6.10221 54.8834 6.44369L54.9352 6.5214L54.977 6.60492C55.2595 7.17004 55.5383 7.79726 55.8 8.38607L55.8077 8.40356L55.8372 8.46973L55.8601 8.53844C55.99 8.92817 56.1734 9.8654 55.4309 10.6079C55.4252 10.6136 55.418 10.6209 55.4095 10.6296C55.3227 10.7181 55.0925 10.9529 54.7988 11.1342L54.3356 11.4816C54.3377 11.6271 54.342 11.7576 54.351 11.8847C54.3654 11.8928 54.3808 11.9014 54.3972 11.9105C54.4043 11.9144 54.4116 11.9185 54.4193 11.9227C54.5348 11.9868 54.716 12.0872 54.9005 12.2151C54.9896 12.2659 55.0571 12.3111 55.0946 12.3361C55.0972 12.3379 55.0997 12.3395 55.1021 12.3411C55.1127 12.3482 55.1203 12.3532 55.1253 12.3565L55.3256 12.4566L55.4977 12.6287C55.6289 12.7599 55.8714 13.0275 56.0137 13.4189C56.1624 13.8279 56.1874 14.3513 55.9369 14.8525L55.6745 15.5522L55.4135 16.2481C55.4099 16.2616 55.4062 16.2746 55.4026 16.2871V16.3818L55.2442 16.6985C55.0638 17.0592 54.7478 17.455 54.2289 17.6712C53.7658 17.8641 53.3262 17.8359 53.0096 17.767C52.7261 17.7197 52.4496 17.6739 52.1516 17.6284L52.0236 17.7564L51.8797 17.9004C51.896 17.9667 51.9164 18.0427 51.9425 18.1383L51.9477 18.1574C51.9939 18.3268 52.0588 18.5645 52.1047 18.8315C52.1587 19.1127 52.2162 19.6142 51.9742 20.1386C51.7203 20.6887 51.2753 20.9791 50.9199 21.1333C50.6339 21.2746 50.3537 21.3972 50.108 21.5047L50.0944 21.5106C49.8219 21.6298 49.5896 21.7318 49.3623 21.8455C49.001 22.0261 48.4773 22.1679 47.8913 21.9876C47.3669 21.8263 47.0328 21.4773 46.8399 21.2252C46.6322 20.9652 46.4434 20.7189 46.2582 20.4396C46.1234 20.4512 45.9947 20.4579 45.8714 20.4618C45.8144 20.561 45.7414 20.6851 45.6638 20.8014C45.6189 20.8688 45.5851 20.9247 45.535 21.0083L45.5316 21.0139C45.482 21.0967 45.4165 21.2058 45.3298 21.3359C45.1052 21.6728 44.7658 21.9739 44.3055 22.1273C43.8638 22.2745 43.4443 22.2414 43.1166 22.1595L43.0337 22.1388L42.9537 22.1088L42.9349 22.1017C42.4139 21.9063 41.8525 21.6958 41.3529 21.4817L41.0874 21.3679L41.0744 21.3548C40.9908 21.3143 40.8777 21.2514 40.7581 21.1566C40.1308 20.6913 39.8091 19.9088 40.0095 19.1102C40.0369 18.9423 40.0647 18.7616 40.0938 18.5721L40.0946 18.567C40.1082 18.4788 40.122 18.3887 40.1361 18.2985C40.1074 18.2729 40.0773 18.2461 40.0454 18.2177L40.032 18.2058C39.9911 18.1695 39.9471 18.1304 39.9012 18.0892C39.8436 18.1038 39.7782 18.1214 39.6996 18.1429L39.6805 18.1481C39.5063 18.1956 39.2599 18.2629 38.9836 18.309L38.8612 18.3294H38.737H38.7362H38.7355H38.7347H38.7339H38.7331H38.7324H38.7316H38.7308H38.73H38.7293H38.7285H38.7277H38.727H38.7262H38.7254H38.7247H38.7239H38.7232H38.7224H38.7217H38.7209H38.7202H38.7194H38.7187H38.7179H38.7172H38.7164H38.7157H38.7149H38.7142H38.7135H38.7127H38.712H38.7112H38.7105H38.7098H38.709H38.7083H38.7076H38.7069H38.7061H38.7054H38.7047H38.704H38.7032H38.7025H38.7018H38.7011H38.7004H38.6997H38.6989H38.6982H38.6975H38.6968H38.6961H38.6954H38.6947H38.694H38.6933H38.6926H38.6919H38.6912H38.6905H38.6898H38.6891H38.6884H38.6877H38.687H38.6863H38.6856H38.6849H38.6842H38.6836H38.6829H38.6822H38.6815H38.6808H38.6801H38.6795H38.6788H38.6781H38.6774H38.6767H38.6761H38.6754H38.6747H38.674H38.6734H38.6727H38.672H38.6714H38.6707H38.67H38.6694H38.6687H38.668H38.6674H38.6667H38.666H38.6654H38.6647H38.6641H38.6634H38.6627H38.6621H38.6614H38.6608H38.6601H38.6595H38.6588H38.6582H38.6575H38.6569H38.6562H38.6556H38.6549H38.6543H38.6536H38.653H38.6524H38.6517H38.6511H38.6504H38.6498H38.6492H38.6485H38.6479H38.6472H38.6466H38.646H38.6453H38.6447H38.6441H38.6434H38.6428H38.6422H38.6416H38.6409H38.6403H38.6397H38.639H38.6384H38.6378H38.6372H38.6365H38.6359H38.6353H38.6347H38.634H38.6334H38.6328H38.6322H38.6316H38.6309H38.6303H38.6297H38.6291H38.6285H38.6279H38.6272H38.6266H38.626H38.6254H38.6248H38.6242H38.6236H38.623H38.6223H38.6217H38.6211H38.6205H38.6199H38.6193H38.6187H38.6181H38.6175H38.6169H38.6163H38.6157H38.6151H38.6145H38.6139H38.6133H38.6126H38.612H38.6114H38.6108H38.6102H38.6096H38.609H38.6084H38.6078H38.6072H38.6066H38.606H38.6054H38.6048H38.6043H38.6037H38.6031H38.6025H38.6019H38.6013H38.6007H38.6001H38.5995H38.5989H38.5983H38.5977H38.5971H38.5965H38.5959H38.5953H38.5947H38.5941H38.5936H38.593H38.5924H38.5918H38.5912H38.5906H38.59H38.5894H38.5888H38.5882H38.5876H38.5871H38.5865H38.5859H38.5853H38.5847H38.5841H38.5835H38.5829H38.5823H38.5818H38.5812H38.5806H38.58H38.5794H38.5788H38.5782H38.5776H38.577H38.5765H38.5759H38.5753H38.5747H38.5741H38.5735H38.5729H38.5723H38.5718H38.5712H38.5706H38.57H38.5694H38.5688H38.5682H38.5677H38.5671H38.5665H38.5659H38.5653H38.5647H38.5641H38.5635H38.563H38.5624H38.5618H38.5612H38.5606H38.56H38.5594H38.5588H38.5582H38.5577H38.5571H38.5565H38.5559H38.5553H38.5547H38.5541H38.5535H38.5529H38.5524H38.5518H38.5512H38.5506H38.55H38.5494H38.5488H38.5482H38.5476H38.547H38.5464H38.5459H38.5453H38.5447H38.5441H38.5435H38.5429H38.5423H38.5417H38.5411H38.5405H38.5399H38.5393H38.5387H38.5381H38.5375H38.5369H38.5363H38.5357H38.5352H38.5346H38.534H38.5334H38.5328H38.5322H38.5316H38.531H38.5304H38.5298H38.5292H38.5286H38.528H38.5274H38.5267H38.5261H38.5255H38.5249H38.5243H38.5237H38.5231H38.5225H38.5219H38.5213H38.5207H38.5201H38.5195H38.5189H38.5183H38.5176H38.517H38.5164H38.5158H38.5152H38.5146H38.514H38.5134H38.5127H38.5121H38.5115H38.5109H38.5103H38.5097H38.509H38.5084H38.5078H38.5072H38.5066H38.506H38.5053H38.5047H38.5041H38.5035H38.5028H38.5022H38.5016H38.501H38.5003H38.4997H38.4991H38.4984H38.4978H38.4972H38.4966H38.4959H38.4953H38.4947H38.494H38.4934H38.4928H38.4921H38.4915H38.4908H38.4902H38.4896H38.4889H38.4883H38.4876H38.487H38.4864H38.4857H38.4851H38.4844H38.4838H38.4831H38.4825H38.4818H38.4812H38.4805H38.4799H38.4792H38.4786H38.4779H38.4773H38.4766H38.4759H38.4753H38.4746H38.474H38.4733H38.4726H38.472H38.4713H38.4706H38.47H38.4693H38.4686H38.468H38.4673H38.4666H38.466H38.4653H38.4646H38.4639H38.4633H38.4626H38.4619H38.4612H38.4605H38.4599H38.4592H38.4585H38.4578H38.4571H38.4564H38.4558H38.4551H38.4544H38.4537H38.453H38.4523H38.4516H38.4509H38.4502H38.4495H38.4488H38.4481H38.4474H38.4467H38.446H38.4453H38.4446H38.4439H38.4432H38.4425H38.4418H38.441H38.4403H38.4396H38.4389H38.4382H38.4375H38.4368H38.436H38.4353H38.4346H38.4339H38.4331H38.4324H38.4317H38.4309H38.4302H38.4295H38.4288H38.428H38.4273H38.4265H38.4258H38.4251H38.4243H38.4236H38.4228H38.4221H38.4213H38.4206H38.4198H38.4191H38.4183H38.4176H38.4168H38.4161H38.4153H38.4146H38.4138H38.413H38.4123H38.4115H38.4107H38.41H38.4092H38.4084H38.4076H38.4069H38.4061H38.4053H38.4045H38.4038H38.403C38.1544 18.3294 37.7546 18.2911 37.3574 18.0429C36.966 17.7982 36.7367 17.4514 36.6113 17.126L35.8297 15.3675L35.8003 15.3013L35.7774 15.2326C35.4823 14.3475 35.8442 13.4588 36.5688 12.9758C36.6447 12.9251 36.7403 12.8571 36.863 12.7694L36.8734 12.762C36.9827 12.684 37.1162 12.5885 37.2369 12.5081L48.2 1.5ZM48.2 1.5H47.9566M48.2 1.5H47.9566M47.9566 1.5L47.9553 1.5C47.9487 1.49999 47.9273 1.49998 47.9049 1.50042C47.8782 1.50094 47.8338 1.50232 47.7801 1.5072C47.6532 1.51874 47.5291 1.54465 47.4071 1.58533C47.3072 1.61861 47.2275 1.65592 47.1923 1.67258C47.1814 1.67778 47.17 1.68324 47.1588 1.68871C46.6085 1.90783 46.2764 2.29075 46.0669 2.59644C46.0649 2.59905 46.063 2.60168 46.061 2.60432C45.9266 2.7832 45.742 3.02897 45.5758 3.30383H45.5737H45.5716H45.5695H45.5673H45.5652H45.5631H45.561H45.5588H45.5567H45.5546H45.5525H45.5503H45.5482H45.5461H45.5439H45.5418H45.5396H45.5375H45.5354H45.5332H45.5311H45.5289H45.5268H45.5247H45.5225H45.5204H45.5182H45.5161H45.5139H45.5118H45.5096H45.5075H45.5053H45.5031H45.501H45.4988H45.4967H45.4945H45.4924H45.4902H45.488H45.4859H45.4837H45.4815H45.4794H45.4772H45.475H45.4729H45.4707H45.4685H45.4663H45.4642H45.462H45.4598H45.4576H45.4555H45.4533H45.4511H45.4489H45.4467H45.4445H45.4424H45.4402H45.438H45.4358H45.4336H45.4314H45.4292H45.427H45.4248H45.4227H45.4205H45.4183H45.4161H45.4139H45.4117H45.4095H45.4073H45.4051H45.4029H45.4007H45.3985H45.3963H45.3941H45.3918H45.3896H45.3874H45.3852H45.383H45.3808H45.3786H45.3764H45.3742H45.3719H45.3697H45.3675H45.3653H45.3631H45.3609H45.3586H45.3564H45.3542H45.352H45.3497H45.3475H45.3453H45.3431H45.3408H45.3386H45.3364H45.3342H45.3319H45.3297H45.3275H45.3252H45.323H45.3208H45.3185H45.3163H45.3141H45.3118H45.3096H45.3073H45.3051H45.3029H45.3006H45.2984H45.2961H45.2939H45.2916H45.2894H45.2871H45.2849H45.2827H45.2804H45.2782H45.2759H45.2737H45.2714H45.2691H45.2669H45.2646H45.2624H45.2601H45.2579H45.2556H45.2536C45.2396 3.28389 45.2252 3.26335 45.2103 3.24215L45.2015 3.22948C45.0896 3.06962 44.9492 2.8691 44.7853 2.66423L44.776 2.65252L44.7664 2.641C44.7604 2.63379 44.7538 2.62586 44.7467 2.61727C44.6006 2.44035 44.2228 1.98296 43.6114 1.80313C42.9455 1.60729 42.3495 1.83045 42.0852 1.92955C41.5231 2.14035 40.9834 2.36832 40.4301 2.68145C40.1884 2.80681 39.7607 3.07231 39.5177 3.6069C39.2872 4.11396 39.3472 4.59739 39.3957 4.855C39.438 5.13694 39.497 5.39235 39.5427 5.59032C39.5441 5.59653 39.5455 5.60268 39.5469 5.60878C39.5766 5.73726 39.6008 5.84357 39.6205 5.94118L39.547 6.01466L39.3749 6.18679C39.141 6.1453 38.8984 6.10485 38.6667 6.06624C37.7775 5.90151 36.6584 6.26222 36.2086 7.38674L36.1922 7.42767L36.1783 7.46949C36.0828 7.75573 35.9869 8.02759 35.8862 8.31311L35.8844 8.31816C35.7853 8.59899 35.6814 8.89335 35.577 9.20651L35.5 9.43744V9.68085V9.68124V9.68163V9.68202V9.68241V9.68279V9.68317V9.68355V9.68393V9.68431V9.68469V9.68507V9.68544V9.68581V9.68618V9.68655V9.68692V9.68729V9.68765V9.68802V9.68838V9.68874V9.6891V9.68946V9.68981V9.69017V9.69052V9.69087V9.69122V9.69157V9.69192V9.69227V9.69261V9.69296V9.6933V9.69364V9.69398V9.69431V9.69465V9.69499V9.69532V9.69565V9.69598V9.69631V9.69664V9.69696V9.69729V9.69761V9.69794V9.69826V9.69858V9.69889V9.69921V9.69953V9.69984V9.70015V9.70046V9.70077V9.70108V9.70139V9.70169V9.702V9.7023V9.7026V9.7029V9.7032V9.7035V9.7038V9.70409V9.70439V9.70468V9.70497V9.70526V9.70555V9.70583V9.70612V9.70641V9.70669V9.70697V9.70725V9.70753V9.70781V9.70809V9.70836V9.70863V9.70891V9.70918V9.70945V9.70972V9.70999V9.71025V9.71052V9.71078V9.71105V9.71131V9.71157V9.71183V9.71208V9.71234V9.7126V9.71285V9.7131V9.71335V9.7136V9.71385V9.7141V9.71435V9.71459V9.71484V9.71508V9.71532V9.71556V9.7158V9.71604V9.71628V9.71652V9.71675V9.71698V9.71722V9.71745V9.71768V9.71791V9.71813V9.71836V9.71859V9.71881V9.71903V9.71925V9.71948V9.7197V9.71991V9.72013V9.72035V9.72056V9.72078V9.72099V9.7212V9.72141V9.72162V9.72183V9.72204V9.72224V9.72245V9.72265V9.72285V9.72306V9.72326V9.72346V9.72365V9.72385V9.72405V9.72424V9.72444V9.72463V9.72482V9.72501V9.7252V9.72539V9.72558V9.72577V9.72595V9.72614V9.72632V9.7265V9.72668V9.72686V9.72704V9.72722V9.7274V9.72757V9.72775V9.72792V9.7281V9.72827V9.72844V9.72861V9.72878V9.72895V9.72911V9.72928V9.72945V9.72961V9.72977V9.72993V9.7301V9.73026V9.73042V9.73057V9.73073V9.73089V9.73104V9.7312V9.73135V9.7315V9.73165V9.7318V9.73195V9.7321V9.73225V9.7324V9.73254V9.73269V9.73283V9.73298V9.73312V9.73326V9.7334V9.73354V9.73368V9.73381V9.73395V9.73409V9.73422V9.73435V9.73449V9.73462V9.73475V9.73488V9.73501V9.73514V9.73527V9.73539V9.73552V9.73565V9.73577V9.73589V9.73602V9.73614V9.73626V9.73638V9.7365V9.73662V9.73673V9.73685V9.73697V9.73708V9.7372V9.73731V9.73742V9.73753V9.73764V9.73775V9.73786V9.73797V9.73808V9.73819V9.73829V9.7384V9.7385V9.73861V9.73871V9.73881V9.73891V9.73901V9.73911V9.73921V9.73931V9.73941V9.7395V9.7396V9.7397V9.73979V9.73988V9.73998V9.74007V9.74016V9.74025V9.74034V9.74043V9.74052V9.74061V9.74069V9.74078V9.74087V9.74095V9.74103V9.74112V9.7412V9.74128V9.74136V9.74145V9.74153V9.7416V9.74168V9.74176V9.74184V9.74192V9.74199V9.74207V9.74214V9.74221V9.74229V9.74236V9.74243V9.7425V9.74257V9.74264V9.74271V9.74278V9.74285V9.74292V9.74298V9.74305V9.74312V9.74318V9.74325V9.74331V9.74337V9.74343V9.7435V9.74356V9.74362V9.74368V9.74374V9.7438V9.74386V9.74391V9.74397V9.74403V9.74408V9.74414V9.74419V9.74425V9.7443V9.74435V9.74441V9.74446V9.74451V9.74456V9.74461V9.74466V9.74471V9.74476V9.74481V9.74485V9.7449V9.74495V9.74499V9.74504V9.74508V9.74513V9.74517V9.74522V9.74526V9.7453V9.74534V9.74538V9.74542V9.74547V9.74551V9.74554V9.74558V9.74562V9.74566V9.7457V9.74573V9.74577V9.74581V9.74584V9.74588V9.74591V9.74595V9.74598V9.74601V9.74605V9.74608V9.74611V9.74614V9.74617V9.74621V9.74624V9.74627V9.74629V9.74632V9.74635V9.74638V9.74641V9.74644V9.74646V9.74649V9.74652V9.74654V9.74657V9.74659V9.74662V9.74664V9.74667V9.74669V9.74671V9.74673V9.74676V9.74678V9.7468V9.74682V9.74684V9.74686V9.74688V9.7469V9.74692V9.74694V9.74696V9.74698V9.747V9.74702V9.74703V9.74705V9.74707V9.74708V9.7471V9.74712V9.74713V9.74715V9.74716V9.74718V9.74719V9.74721V9.74722V9.74723V9.74725V9.74726V9.74727V9.74729V9.7473V9.74731V9.74732V9.74733V9.74734V9.74736V9.74737V9.74738V9.74739V9.7474V9.74741V9.74742V9.74743V9.74743V9.74744V9.74745V9.74746V9.74747V9.74748V9.74748V9.74749V9.7475V9.7475V9.74751V9.74752V9.74752V9.74753V9.74754V9.74754V9.74755V9.74755V9.74756V9.74756V9.74757V9.74757V9.74758V9.74758V9.74759V9.74759V9.74759V9.7476V9.7476V9.74761V9.74761V9.74762V9.74762V9.74763V9.74763V9.74764V9.74764V9.74765V9.74765V9.74765V9.74766V9.81447V10.0579L35.577 10.2888C35.776 10.886 36.1656 11.2465 36.486 11.4733C36.5449 11.5205 36.6023 11.5602 36.656 11.5938C36.6578 11.5949 36.6596 11.596 36.6614 11.5972L36.6712 11.607L36.8295 11.702C36.9614 11.7811 37.0833 11.8621 37.2369 11.9645L37.2463 11.9707C37.259 11.9792 37.272 11.9879 37.2852 11.9967M47.9566 1.5L37.2852 11.9967M37.2852 11.9967C37.2949 12.1498 37.2995 12.3023 37.3018 12.4613C37.276 12.481 37.2568 12.4948 37.2369 12.5081L37.2852 11.9967ZM36.8349 11.693C36.8339 11.6925 36.8326 11.6918 36.8309 11.6909C36.8326 11.6918 36.834 11.6924 36.835 11.693C36.8365 11.6938 36.8373 11.6941 36.8372 11.6941C36.8371 11.6941 36.8363 11.6937 36.8349 11.693ZM47.9984 11.6942L47.9909 11.7841L47.9942 11.8742C48.0332 12.926 47.0894 14.0987 45.796 14.0606L45.774 14.06H45.7519C44.5021 14.06 43.5232 13.06 43.5108 11.7767C43.5643 10.5657 44.7236 9.57745 45.7519 9.57745C47.225 9.57745 48.0637 10.9101 47.9984 11.6942Z" stroke="#0779BB" stroke-width="3" stroke-miterlimit="10"/>
</svg>
