<svg width="33" height="45" viewBox="0 0 33 45" fill="none" xmlns="http://www.w3.org/2000/svg">
<path d="M0 2H32.1" stroke="#0779BB" stroke-width="3" stroke-miterlimit="10"/>
<path d="M0 42.6H32.1" stroke="#0779BB" stroke-width="3" stroke-miterlimit="10"/>
<path d="M4.90039 42C4.90039 42 4.90039 35.9 4.90039 32.3C4.90039 28.7 13.4004 25.7 13.4004 22.2C13.4004 18.7 4.90039 16.2 4.90039 12.6C4.90039 9 4.90039 2 4.90039 2" stroke="#0779BB" stroke-width="3" stroke-miterlimit="10"/>
<path d="M27 2C27 2 27 8.1 27 11.7C27 15.3 18.5 18.3 18.5 21.8C18.5 25.3 27 27.8 27 31.4C27 35 27 42 27 42" stroke="#0779BB" stroke-width="3" stroke-miterlimit="10"/>
</svg>
