<svg width="23" height="23" viewBox="0 0 23 23" fill="none" xmlns="http://www.w3.org/2000/svg">
<path d="M0 1H4.3837L5.87181 15.1881H21.8207V4.81806H8.65286" stroke="#8E8E8E" stroke-width="2" stroke-miterlimit="10"/>
<path d="M8.70051 22.4C9.89802 22.4 10.8688 21.4293 10.8688 20.2318C10.8688 19.0342 9.89802 18.0635 8.70051 18.0635C7.503 18.0635 6.53223 19.0342 6.53223 20.2318C6.53223 21.4293 7.503 22.4 8.70051 22.4Z" fill="#8E8E8E"/>
<path d="M19.3529 22.4C20.5504 22.4 21.5211 21.4293 21.5211 20.2318C21.5211 19.0342 20.5504 18.0635 19.3529 18.0635C18.1553 18.0635 17.1846 19.0342 17.1846 20.2318C17.1846 21.4293 18.1553 22.4 19.3529 22.4Z" fill="#8E8E8E"/>
</svg>
