<svg width="19" height="16" viewBox="0 0 19 16" fill="none" xmlns="http://www.w3.org/2000/svg">
<mask id="path-1-inside-1_1:114" fill="white">
<path fill-rule="evenodd" clip-rule="evenodd" d="M17.3974 1.84521C15.5934 0.0411797 12.6685 0.0411818 10.8645 1.84521L9.60666 3.103L8.43003 1.92637C6.67267 0.169011 3.82342 0.169011 2.06607 1.92637C0.308706 3.68373 0.308708 6.53297 2.06607 8.29033L9.72099 15.9453L9.77232 15.8939L9.82699 15.9486L17.3974 8.37817C19.2014 6.57414 19.2014 3.64923 17.3974 1.84521Z"/>
</mask>
<path d="M10.8645 1.84521L9.45024 0.430995V0.430995L10.8645 1.84521ZM17.3974 1.84521L15.9832 3.25942L15.9832 3.25942L17.3974 1.84521ZM9.60666 3.103L8.19244 4.51722L9.60666 5.93143L11.0209 4.51722L9.60666 3.103ZM8.43003 1.92637L7.01581 3.34058V3.34058L8.43003 1.92637ZM2.06607 1.92637L0.651852 0.512157L0.651852 0.512157L2.06607 1.92637ZM2.06607 8.29033L0.651854 9.70455H0.651854L2.06607 8.29033ZM9.72099 15.9453L8.30677 17.3595L9.721 18.7737L11.1352 17.3595L9.72099 15.9453ZM9.77232 15.8939L11.1865 14.4797L9.77231 13.0655L8.35809 14.4797L9.77232 15.8939ZM9.82699 15.9486L8.41278 17.3628L9.82699 18.777L11.2412 17.3628L9.82699 15.9486ZM17.3974 8.37817L15.9832 6.96395H15.9832L17.3974 8.37817ZM12.2787 3.25942C13.3016 2.23644 14.9602 2.23644 15.9832 3.25942L18.8116 0.430993C16.2266 -2.15408 12.0353 -2.15408 9.45024 0.430995L12.2787 3.25942ZM11.0209 4.51722L12.2787 3.25942L9.45024 0.430995L8.19244 1.68879L11.0209 4.51722ZM7.01581 3.34058L8.19244 4.51722L11.0209 1.68879L9.84424 0.512157L7.01581 3.34058ZM3.48028 3.34058C4.45659 2.36427 6.0395 2.36427 7.01581 3.34058L9.84424 0.512157C7.30583 -2.02625 3.19026 -2.02625 0.651852 0.512157L3.48028 3.34058ZM3.48028 6.87612C2.50397 5.89981 2.50397 4.31689 3.48028 3.34058L0.651852 0.512157C-1.88656 3.05057 -1.88655 7.16614 0.651854 9.70455L3.48028 6.87612ZM11.1352 14.531L3.48028 6.87612L0.651854 9.70455L8.30677 17.3595L11.1352 14.531ZM8.35809 14.4797L8.30676 14.5311L11.1352 17.3595L11.1865 17.3081L8.35809 14.4797ZM11.2412 14.5344L11.1865 14.4797L8.35811 17.3081L8.41278 17.3628L11.2412 14.5344ZM15.9832 6.96395L8.41278 14.5344L11.2412 17.3628L18.8116 9.79238L15.9832 6.96395ZM15.9832 3.25942C17.0062 4.2824 17.0062 5.94097 15.9832 6.96395L18.8116 9.79238C21.3967 7.2073 21.3967 3.01607 18.8116 0.430993L15.9832 3.25942Z" fill="#75BB3F" mask="url(#path-1-inside-1_1:114)"/>
</svg>
