<svg width="20" height="20" viewBox="0 0 20 20" fill="none" xmlns="http://www.w3.org/2000/svg">
<path d="M9.99114 5.05469C8.65873 5.05469 7.38089 5.58399 6.43874 6.52614C5.49658 7.4683 4.96729 8.74613 4.96729 10.0785C4.96729 11.411 5.49658 12.6888 6.43874 13.6309C7.38089 14.5731 8.65873 15.1024 9.99114 15.1024C11.3235 15.1024 12.6014 14.5731 13.5435 13.6309C14.4857 12.6888 15.015 11.411 15.015 10.0785C15.015 8.74613 14.4857 7.4683 13.5435 6.52614C12.6014 5.58399 11.3235 5.05469 9.99114 5.05469ZM9.99114 13.3412C9.12553 13.3412 8.29538 12.9974 7.68331 12.3853C7.07123 11.7732 6.72737 10.9431 6.72737 10.0775C6.72737 9.21185 7.07123 8.3817 7.68331 7.76962C8.29538 7.15755 9.12553 6.81369 9.99114 6.81369C10.8567 6.81369 11.6869 7.15755 12.299 7.76962C12.911 8.3817 13.2549 9.21185 13.2549 10.0775C13.2549 10.9431 12.911 11.7732 12.299 12.3853C11.6869 12.9974 10.8567 13.3412 9.99114 13.3412Z" fill="white"/>
<path d="M15.2137 6.03384C15.8605 6.03384 16.3849 5.50947 16.3849 4.86262C16.3849 4.21578 15.8605 3.69141 15.2137 3.69141C14.5669 3.69141 14.0425 4.21578 14.0425 4.86262C14.0425 5.50947 14.5669 6.03384 15.2137 6.03384Z" fill="white"/>
<path d="M19.2638 3.6822C19.0122 3.03269 18.6279 2.44284 18.1353 1.95043C17.6427 1.45801 17.0527 1.07388 16.4031 0.822606C15.6429 0.537251 14.8398 0.382954 14.028 0.366287C12.9818 0.320655 12.6504 0.307617 9.99723 0.307617C7.34406 0.307617 7.004 0.307617 5.96641 0.366287C5.15524 0.382102 4.35274 0.53643 3.59356 0.822606C2.94378 1.07358 2.35363 1.45762 1.86099 1.95007C1.36835 2.44252 0.984095 3.03252 0.732872 3.6822C0.44746 4.44232 0.293518 5.24546 0.277639 6.05724C0.230921 7.10242 0.216797 7.4338 0.216797 10.0881C0.216797 12.7412 0.216797 13.0791 0.277639 14.1189C0.293936 14.9316 0.447129 15.7334 0.732872 16.495C0.984801 17.1444 1.36943 17.7342 1.86219 18.2266C2.35495 18.719 2.945 19.1031 3.59464 19.3546C4.35239 19.6514 5.15522 19.8168 5.96859 19.8435C7.01486 19.8891 7.34624 19.9033 9.9994 19.9033C12.6526 19.9033 12.9926 19.9033 14.0302 19.8435C14.8419 19.827 15.645 19.6731 16.4053 19.3883C17.0547 19.1364 17.6445 18.7519 18.1371 18.2594C18.6296 17.7668 19.0141 17.177 19.2659 16.5276C19.5517 15.7671 19.7049 14.9652 19.7212 14.1526C19.7679 13.1074 19.782 12.776 19.782 10.1217C19.782 7.46748 19.782 7.13067 19.7212 6.09092C19.7085 5.26767 19.5538 4.45278 19.2638 3.6822ZM17.9404 14.0385C17.9334 14.6646 17.8191 15.2849 17.6025 15.8724C17.4394 16.2949 17.1896 16.6786 16.8693 16.9988C16.5489 17.3189 16.1651 17.5685 15.7425 17.7314C15.1615 17.947 14.5478 18.0613 13.9281 18.0693C12.8959 18.1171 12.6048 18.129 9.95812 18.129C7.3093 18.129 7.03876 18.129 5.98706 18.0693C5.36769 18.0617 4.75426 17.9474 4.17373 17.7314C3.74967 17.5695 3.36431 17.3204 3.0426 17.0002C2.72088 16.6799 2.46996 16.2957 2.30609 15.8724C2.09254 15.2912 1.97831 14.6782 1.96819 14.0591C1.92147 13.027 1.91061 12.7358 1.91061 10.0891C1.91061 7.4414 1.91061 7.17087 1.96819 6.11808C1.97521 5.49229 2.0895 4.87235 2.30609 4.2852C2.63746 3.42797 3.31651 2.75327 4.17373 2.42515C4.75455 2.21018 5.3678 2.09591 5.98706 2.08726C7.02029 2.04054 7.31038 2.0275 9.95812 2.0275C12.6059 2.0275 12.8775 2.02751 13.9281 2.08726C14.5478 2.09472 15.1616 2.20902 15.7425 2.42515C16.1651 2.58842 16.5488 2.83823 16.8691 3.15856C17.1895 3.47888 17.4393 3.86264 17.6025 4.2852C17.8161 4.86641 17.9303 5.47941 17.9404 6.09852C17.9872 7.13176 17.9991 7.42185 17.9991 10.0696C17.9991 12.7162 17.9991 13.0009 17.9524 14.0396H17.9404V14.0385Z" fill="white"/>
</svg>
