<svg width="32" height="34" viewBox="0 0 32 34" fill="none" xmlns="http://www.w3.org/2000/svg">
<path d="M28.5967 8.95069H25.4662C25.1009 8.95069 25.0719 8.60297 25.051 8.43117C24.4771 3.68767 20.4274 0 15.5314 0C10.6392 0 6.59159 3.68246 6.01298 8.42103C5.9917 8.59613 5.89013 8.9506 5.60078 8.9506H2.46606C1.10635 8.9506 0 10.0569 0 11.4167V30.6755C0 32.0353 1.10635 33.1415 2.46606 33.1415H28.5967C29.9566 33.1415 31.0627 32.0353 31.0627 30.6755V11.4167C31.0627 10.0569 29.9566 8.95069 28.5967 8.95069ZM15.5314 1.5527C19.5844 1.5527 22.946 4.56823 23.4911 8.47328C23.5131 8.63102 23.609 8.9506 23.1371 8.9506H7.94518C7.51883 8.9506 7.54805 8.64481 7.56879 8.49383C8.10502 4.57883 11.4715 1.5527 15.5314 1.5527ZM19.005 25.617H17.3601C17.3601 25.617 16.9928 25.6224 16.9928 25.9078C16.9928 26.3382 16.9928 27.6292 16.9928 27.6292C16.9928 28.4363 16.3386 29.0906 15.5314 29.0906C14.7244 29.0906 14.07 28.4363 14.07 27.6292C14.07 27.6292 14.07 26.3553 14.07 25.9307C14.07 25.5882 13.7524 25.617 13.7524 25.617H12.0579C11.2508 25.617 10.5966 24.9627 10.5966 24.1557C10.5966 23.3486 11.2508 22.6943 12.0579 22.6943H13.7068C13.7068 22.6943 14.0701 22.7111 14.0701 22.3572C14.0701 21.9384 14.0701 20.6821 14.0701 20.6821C14.0701 19.875 14.7245 19.2207 15.5315 19.2207C16.3387 19.2207 16.9929 19.875 16.9929 20.6821C16.9929 20.6821 16.9929 22.024 16.9929 22.4713C16.9929 22.7111 17.3032 22.6943 17.3032 22.6943H19.0051C19.8121 22.6943 20.4664 23.3486 20.4664 24.1557C20.4664 24.9627 19.812 25.617 19.005 25.617ZM28.7608 15.5591H3.1803C2.8272 15.5591 2.54095 15.2728 2.54095 14.9197C2.54095 14.5666 2.8272 14.2804 3.1803 14.2804H28.7607C29.1137 14.2804 29.4001 14.5666 29.4001 14.9197C29.4001 15.2728 29.1138 15.5591 28.7608 15.5591Z" fill="white"/>
</svg>
