<svg width="12" height="14" viewBox="0 0 12 14" fill="none" xmlns="http://www.w3.org/2000/svg">
<path fill-rule="evenodd" clip-rule="evenodd" d="M2.40826 0.700509C2.55938 0.593035 2.73162 0.518907 2.91356 0.483035C3.0955 0.447163 3.28299 0.450367 3.4636 0.492435C3.64421 0.534503 3.81381 0.614474 3.96118 0.727048C4.10854 0.839623 4.2303 0.98223 4.31838 1.14542L5.3594 3.07403C5.55016 3.42777 5.56748 3.84971 5.40671 4.21815L4.72999 5.76992C4.69497 5.85029 4.68134 5.93836 4.6904 6.02556C4.69947 6.11277 4.73093 6.19615 4.78173 6.2676L6.2936 8.39016C6.34459 8.46166 6.41322 8.51874 6.49281 8.55584C6.57241 8.59293 6.66025 8.60878 6.74779 8.60185L8.43477 8.46932C8.63254 8.45375 8.83126 8.48335 9.0159 8.55588C9.20055 8.62841 9.36629 8.74196 9.5006 8.88796L10.9832 10.5014C11.5162 11.0815 11.4201 11.9969 10.7793 12.4528L9.88601 13.089C9.24674 13.5444 8.38834 13.6473 7.67092 13.2507C5.83461 12.236 4.25032 10.821 3.03556 9.11046C1.81604 7.40359 0.996437 5.44408 0.637522 3.37725C0.497786 2.57047 0.87573 1.79211 1.515 1.33676L2.40826 0.700509Z" fill="#2E5587"/>
</svg>
