<svg width="48" height="64" viewBox="0 0 48 64" fill="none" xmlns="http://www.w3.org/2000/svg">
<path d="M30.9385 5.08655H40.3545V40.1331" stroke="#0779BB" stroke-width="3" stroke-miterlimit="10"/>
<path d="M23.0497 54.7115H2V5.08655H12.2885" stroke="#0779BB" stroke-width="3" stroke-miterlimit="10"/>
<path d="M32.7573 38.6423C32.7573 37.3335 31.8121 36.1701 30.3942 35.7702L23.9957 33.9524V31.4439C23.9957 31.4439 25.5226 29.9533 26.0679 27.2267C26.177 26.7541 28.1038 25.0454 26.7587 24.3546C27.4494 21.1917 27.9221 16.5746 20.8691 16.5746" stroke="#0779BB" stroke-width="3" stroke-miterlimit="10"/>
<path d="M21.4868 16.575C14.4339 16.575 14.9065 21.2284 15.5973 24.355C14.2521 25.0457 16.1789 26.7544 16.288 27.2271C16.8333 29.9537 18.3603 31.4443 18.3603 31.4443V33.9528L11.9617 35.7706C10.5439 36.1705 9.59863 37.3338 9.59863 38.6426V41.4783H27.4127" stroke="#0779BB" stroke-width="3" stroke-miterlimit="10"/>
<path d="M34.2836 61.6193C40.4878 61.6193 45.5174 56.5898 45.5174 50.3855C45.5174 44.1813 40.4878 39.1517 34.2836 39.1517C28.0793 39.1517 23.0498 44.1813 23.0498 50.3855C23.0498 56.5898 28.0793 61.6193 34.2836 61.6193Z" stroke="#0779BB" stroke-width="3" stroke-miterlimit="10"/>
<path d="M30.1758 50.2765L33.0842 53.1485L39.2646 46.9681" stroke="#0779BB" stroke-width="3" stroke-miterlimit="10"/>
<path d="M30.2849 1.52393H12.2891V7.95881H30.2849V1.52393Z" stroke="#0779BB" stroke-width="3" stroke-miterlimit="10"/>
</svg>
